<?xml version="1.0" encoding="UTF-8"?>
<svg version="1.1" xmlns="http://www.w3.org/2000/svg" width="224" height="224">
<path d="M0 0 C0 0.66 0 1.32 0 2 C0.66 2 1.32 2 2 2 C3.0209375 3.2375 3.0209375 3.2375 4.0625 4.5 C7.62922419 7.53550995 9.32675305 7.55722813 13.83984375 7.30859375 C16.45090106 6.93558556 18.65705347 6.20926273 21 5 C25.03717996 7.92713223 27.59374897 10.95727243 30.3125 15.125 C31.00988281 16.17945312 31.70726562 17.23390625 32.42578125 18.3203125 C34 21 34 21 34 23 C35.65 22.34 37.3 21.68 39 21 C72.50531898 47.62868146 72.50531898 47.62868146 76 69 C76.11678799 71.67678073 76.0454506 74.31841457 76 77 C76.5775 77.0825 77.155 77.165 77.75 77.25 C80.80545009 78.26848336 82.08676027 79.40346036 84 82 C84.44840805 86.18514179 84.46947845 89.49074115 82 93 C78.5480176 95.3013216 77.12917201 95.21884331 73.0625 95.3125 C68.28042708 95.60152639 64.75464422 96.31482434 60.4375 98.375 C40.16743984 107.64976228 14.6854482 105.16647427 -5.80078125 98.0234375 C-17.27035465 93.57154382 -17.27035465 93.57154382 -18.8125 90.25 C-18.9053125 89.13625 -18.9053125 89.13625 -19 88 C-19.12375 86.9275 -19.2475 85.855 -19.375 84.75 C-18.90162521 80.01625207 -17.24821256 76.50465039 -14 73 C-10.55125486 71.47216882 -7.86390699 72.30295814 -4.3125 73.25 C-2.85263672 73.62898438 -2.85263672 73.62898438 -1.36328125 74.015625 C1.19431177 74.76418881 3.66637975 75.58374038 6.17578125 76.46875 C11.52574512 78.26987265 16.94667238 79.28674212 22.5 80.25 C23.97146484 80.5284375 23.97146484 80.5284375 25.47265625 80.8125 C33.53950309 82.23037455 40.4177186 82.34512415 48 79 C48.99 79 49.98 79 51 79 C51 78.34 51 77.68 51 77 C51.66 77 52.32 77 53 77 C56.33155891 69.77266656 56.30213794 61.56201789 53.83203125 54.03125 C51.30528075 47.22423485 48.02704791 41.04057187 44 35 C44 34.34 44 33.68 44 33 C43.34 33 42.68 33 42 33 C40.375 30.5 40.375 30.5 39 28 C38.67 29.32 38.34 30.64 38 32 C38.66 32.33 39.32 32.66 40 33 C40.79217435 35.65154208 41.46273766 38.24169918 42.0625 40.9375 C42.2387793 41.71440186 42.41505859 42.49130371 42.59667969 43.29174805 C43.82424772 48.85467332 44.76861702 54.29872341 45 60 C45.06316406 61.0209375 45.12632812 62.041875 45.19140625 63.09375 C45.49380078 71.13159173 45.49380078 71.13159173 43.1875 75.1875 C39.64766887 78.12050293 36.51965617 78.20782019 32.0625 78.3125 C31.02222656 78.34988281 29.98195313 78.38726562 28.91015625 78.42578125 C25.22951375 77.88727114 24.30862374 76.86339522 22 74 C21.40991211 71.45727539 21.40991211 71.45727539 21.27734375 68.59765625 C21.1848938 67.02383179 21.1848938 67.02383179 21.09057617 65.41821289 C21.04006104 64.31082764 20.9895459 63.20344238 20.9375 62.0625 C20.16069088 41.67092194 20.16069088 41.67092194 10.37890625 24.56640625 C8.96341618 23.6397185 7.48526916 22.81014681 6 22 C5.505 21.01 5.505 21.01 5 20 C-6.90848475 19.18497063 -14.93526749 22.43970839 -24 30 C-24.57234375 30.43957031 -25.1446875 30.87914063 -25.734375 31.33203125 C-32.80299822 36.95774744 -38.43471331 44.25365348 -43 52 C-44.6875 53.8125 -44.6875 53.8125 -46 55 C-46.66 54.67 -47.32 54.34 -48 54 C-41.04033525 33.38408586 -32.58200394 13.57747581 -12.140625 3.03515625 C-11.43421875 2.69355469 -10.7278125 2.35195313 -10 2 C-9.33484375 1.66871094 -8.6696875 1.33742187 -7.984375 0.99609375 C-3.42281659 -1.14093886 -3.42281659 -1.14093886 0 0 Z M35 24 C35.33 24.99 35.66 25.98 36 27 C36.66 27 37.32 27 38 27 C37.67 26.01 37.34 25.02 37 24 C36.34 24 35.68 24 35 24 Z " fill="#28A710" transform="translate(115,36)"/>
<path d="M0 0 C0 0.66 0 1.32 0 2 C0.66 2 1.32 2 2 2 C3.0209375 3.2375 3.0209375 3.2375 4.0625 4.5 C7.62922419 7.53550995 9.32675305 7.55722813 13.83984375 7.30859375 C16.45090106 6.93558556 18.65705347 6.20926273 21 5 C25.03717996 7.92713223 27.59374897 10.95727243 30.3125 15.125 C31.00988281 16.17945312 31.70726562 17.23390625 32.42578125 18.3203125 C34 21 34 21 34 23 C34.66 23.33 35.32 23.66 36 24 C36 24.99 36 25.98 36 27 C36.66 27.33 37.32 27.66 38 28 C38 29.32 38 30.64 38 32 C38.66 32.33 39.32 32.66 40 33 C40.79217435 35.65154208 41.46273766 38.24169918 42.0625 40.9375 C42.2387793 41.71440186 42.41505859 42.49130371 42.59667969 43.29174805 C43.82424772 48.85467332 44.76861702 54.29872341 45 60 C45.06316406 61.0209375 45.12632812 62.041875 45.19140625 63.09375 C45.49380078 71.13159173 45.49380078 71.13159173 43.1875 75.1875 C39.64766887 78.12050293 36.51965617 78.20782019 32.0625 78.3125 C31.02222656 78.34988281 29.98195313 78.38726562 28.91015625 78.42578125 C25.22951375 77.88727114 24.30862374 76.86339522 22 74 C21.40991211 71.45727539 21.40991211 71.45727539 21.27734375 68.59765625 C21.1848938 67.02383179 21.1848938 67.02383179 21.09057617 65.41821289 C21.04006104 64.31082764 20.9895459 63.20344238 20.9375 62.0625 C20.16069088 41.67092194 20.16069088 41.67092194 10.37890625 24.56640625 C8.96341618 23.6397185 7.48526916 22.81014681 6 22 C5.505 21.01 5.505 21.01 5 20 C-6.90848475 19.18497063 -14.93526749 22.43970839 -24 30 C-24.57234375 30.43957031 -25.1446875 30.87914063 -25.734375 31.33203125 C-32.80299822 36.95774744 -38.43471331 44.25365348 -43 52 C-44.6875 53.8125 -44.6875 53.8125 -46 55 C-46.66 54.67 -47.32 54.34 -48 54 C-41.04033525 33.38408586 -32.58200394 13.57747581 -12.140625 3.03515625 C-11.43421875 2.69355469 -10.7278125 2.35195313 -10 2 C-9.33484375 1.66871094 -8.6696875 1.33742187 -7.984375 0.99609375 C-3.42281659 -1.14093886 -3.42281659 -1.14093886 0 0 Z " fill="#04155E" transform="translate(115,36)"/>
<path d="M0 0 C4.27074603 2.33017897 7.35948698 5.14829947 9.25 9.6875 C9.375 12.875 9.375 12.875 8.25 15.6875 C6.0625 17.8125 6.0625 17.8125 3.25 19.6875 C2.404375 20.285625 1.55875 20.88375 0.6875 21.5 C-2.37524676 23.52061734 -5.56458396 25.30588726 -8.75 27.125 C-16.3413484 31.23861704 -16.3413484 31.23861704 -21.75 37.6875 C-22.41 37.6875 -23.07 37.6875 -23.75 37.6875 C-23.75 38.3475 -23.75 39.0075 -23.75 39.6875 C-24.4925 40.22375 -25.235 40.76 -26 41.3125 C-30.63177579 45.31267 -32.90953366 50.07364979 -33.4375 56.1875 C-33.24983496 61.10944211 -30.75222135 63.68527865 -27.37890625 67.05859375 C-25.75 68.6875 -25.75 68.6875 -24.75 70.6875 C-23.08958925 71.05071485 -21.42056149 71.37426972 -19.75 71.6875 C-18.36928867 72.12832952 -16.99475802 72.58873065 -15.625 73.0625 C-5.90917511 76.34409403 3.18226305 78.22015476 13.4375 78.875 C14.58025391 78.95685547 15.72300781 79.03871094 16.90039062 79.12304688 C19.68306808 79.32097791 22.46602325 79.50895365 25.25 79.6875 C22.19033831 83.09866782 19.57313235 83.4890947 15.0625 84.3125 C13.79019531 84.55226563 12.51789063 84.79203125 11.20703125 85.0390625 C-9.81698356 88.60298471 -29.02575556 87.36617066 -47.75 76.6875 C-47.42 75.3675 -47.09 74.0475 -46.75 72.6875 C-46.09 72.6875 -45.43 72.6875 -44.75 72.6875 C-44.58126522 71.25024129 -44.41509263 69.81268162 -44.25 68.375 C-44.1571875 67.57449219 -44.064375 66.77398437 -43.96875 65.94921875 C-43.70186537 63.56853445 -43.70186537 63.56853445 -43.75 60.6875 C-44.41 60.3575 -45.07 60.0275 -45.75 59.6875 C-46.4925 59.0275 -47.235 58.3675 -48 57.6875 C-51.02962699 55.48413491 -53.06510822 55.03028063 -56.75 54.6875 C-56.18986272 39.84386197 -44.46664601 27.63400246 -34.26953125 17.82421875 C-30.43097734 14.2941696 -26.30728776 11.2096805 -22.0625 8.1875 C-21.37430176 7.69531982 -20.68610352 7.20313965 -19.97705078 6.69604492 C-5.86960183 -3.03409869 -5.86960183 -3.03409869 0 0 Z " fill="#EB2939" transform="translate(116.75,63.3125)"/>
<path d="M0 0 C9.89092491 2.21542763 19.85999567 4.7413726 29.4375 8.078125 C34.09340578 9.54523776 38.48816719 9.48831927 43.15234375 7.93359375 C46.77113437 7.94083133 50.37644468 8.00960263 53.9921875 8.1484375 C58.286671 8.38913516 58.286671 8.38913516 61.89648438 6.41748047 C62.31091797 5.92779785 62.72535156 5.43811523 63.15234375 4.93359375 C64.14234375 5.26359375 65.13234375 5.59359375 66.15234375 5.93359375 C66.81234375 4.28359375 67.47234375 2.63359375 68.15234375 0.93359375 C69.14234375 1.42859375 69.14234375 1.42859375 70.15234375 1.93359375 C69.82234375 3.91359375 69.49234375 5.89359375 69.15234375 7.93359375 C69.81234375 7.27359375 70.47234375 6.61359375 71.15234375 5.93359375 C71.15234375 8.07952821 71.12885429 10.2255139 71.08984375 12.37109375 C71.13914479 15.18125289 71.30748417 17.29340756 72.15234375 19.93359375 C66.40234375 22.93359375 66.40234375 22.93359375 64.15234375 22.93359375 C64.15234375 23.59359375 64.15234375 24.25359375 64.15234375 24.93359375 C56.40234375 25.05859375 56.40234375 25.05859375 54.15234375 23.93359375 C54.15234375 24.92359375 54.15234375 25.91359375 54.15234375 26.93359375 C49.91652048 26.98298003 45.6808491 27.01930638 41.44482422 27.04345703 C40.00338828 27.05352338 38.5619728 27.06717755 37.12060547 27.08447266 C35.05040441 27.10869387 32.98047299 27.12007016 30.91015625 27.12890625 C29.04061279 27.1446167 29.04061279 27.1446167 27.13330078 27.16064453 C24.15234375 26.93359375 24.15234375 26.93359375 22.15234375 24.93359375 C19.66286454 24.3233616 19.66286454 24.3233616 16.83984375 23.93359375 C12.98748741 23.34496632 9.73916605 22.45064318 6.15234375 20.93359375 C3.82485681 20.24679433 1.49247719 19.57598332 -0.84765625 18.93359375 C-0.84765625 18.27359375 -0.84765625 17.61359375 -0.84765625 16.93359375 C-1.83765625 17.26359375 -2.82765625 17.59359375 -3.84765625 17.93359375 C-3.84765625 17.27359375 -3.84765625 16.61359375 -3.84765625 15.93359375 C-5.16765625 15.60359375 -6.48765625 15.27359375 -7.84765625 14.93359375 C-8.1619903 9.69469289 -7.65544481 6.40525702 -4.84765625 1.93359375 C-1.84765625 -0.06640625 -1.84765625 -0.06640625 0 0 Z " fill="#27AA0D" transform="translate(105.84765625,110.06640625)"/>
<path d="M0 0 C6.75048018 2.14860889 13.59076612 3.48408168 20.55981445 4.72998047 C21.38956787 4.88354004 22.21932129 5.03709961 23.07421875 5.1953125 C24.19123169 5.39278076 24.19123169 5.39278076 25.33081055 5.59423828 C27.1875 6.125 27.1875 6.125 29.1875 8.125 C27.45869018 8.17949838 25.72937288 8.21801688 24 8.25 C23.03707031 8.27320312 22.07414062 8.29640625 21.08203125 8.3203125 C17.97380216 8.11058044 16.04027639 7.34761845 13.1875 6.125 C-0.60151795 1.42465677 -0.60151795 1.42465677 -14.8125 -0.875 C-18.24004276 1.41002851 -18.69691117 2.26334634 -19.8125 6.125 C-19.88896165 8.4570802 -19.90393299 10.79345878 -19.8125 13.125 C-18.843125 13.41375 -17.87375 13.7025 -16.875 14 C-13.8125 15.125 -13.8125 15.125 -12.8125 17.125 C-10.86179298 17.74160818 -10.86179298 17.74160818 -8.5625 18.125 C-5.94634408 18.64823118 -3.72228776 19.16240508 -1.25 20.1875 C1.0873861 21.08649465 2.90356207 21.37254129 5.375 21.625 C9.1875 22.125 9.1875 22.125 11.1875 24.125 C14.29506015 24.49822427 14.29506015 24.49822427 17.9453125 24.5390625 C18.60836395 24.55842865 19.27141541 24.5777948 19.95455933 24.5977478 C22.07374177 24.65755954 24.1929785 24.70393388 26.3125 24.75 C27.74872169 24.78817845 29.18492045 24.82723011 30.62109375 24.8671875 C34.14301936 24.96326125 37.66511608 25.04728642 41.1875 25.125 C41.1875 24.135 41.1875 23.145 41.1875 22.125 C44.4875 22.455 47.7875 22.785 51.1875 23.125 C51.1875 22.465 51.1875 21.805 51.1875 21.125 C53.4975 20.135 55.8075 19.145 58.1875 18.125 C58.1875 16.475 58.1875 14.825 58.1875 13.125 C63.0625 15 63.0625 15 64.1875 16.125 C65.70219448 16.35692865 67.22504562 16.53715238 68.75 16.6875 C69.98943359 16.81318359 69.98943359 16.81318359 71.25390625 16.94140625 C71.89199219 17.00199219 72.53007812 17.06257813 73.1875 17.125 C73.5175 16.465 73.8475 15.805 74.1875 15.125 C74.8475 15.125 75.5075 15.125 76.1875 15.125 C77.1775 14.795 78.1675 14.465 79.1875 14.125 C78.1875 17.125 78.1875 17.125 75.1875 19.125 C73.21318402 19.29828529 71.23138061 19.3918682 69.25 19.4375 C64.46792708 19.72652639 60.94214422 20.43982434 56.625 22.5 C36.35493984 31.77476228 10.8729482 29.29147427 -9.61328125 22.1484375 C-21.08285465 17.69654382 -21.08285465 17.69654382 -22.625 14.375 C-22.686875 13.6325 -22.74875 12.89 -22.8125 12.125 C-22.93625 11.0525 -23.06 9.98 -23.1875 8.875 C-22.7100226 4.10022605 -20.94876032 0.74715981 -17.8125 -2.875 C-12.02700056 -4.80349981 -5.62422492 -1.83131133 0 0 Z " fill="#3D9927" transform="translate(118.8125,111.875)"/>
<path d="M0 0 C0.825 0.7425 1.65 1.485 2.5 2.25 C5.50539858 4.76996603 8.62070178 6.46127203 12.16796875 8.10546875 C14 9 14 9 17 11 C19.64017635 11.81779841 22.30270591 12.3809489 25 13 C25 13.33 25 13.66 25 14 C26.98 14.66 28.96 15.32 31 16 C31 16.66 31 17.32 31 18 C31.99 17.34 32.98 16.68 34 16 C36.375 16.3125 36.375 16.3125 39 17 C39.928125 17.185625 40.85625 17.37125 41.8125 17.5625 C42.534375 17.706875 43.25625 17.85125 44 18 C38.66847409 21.23091113 32.53592381 20.32808865 26.5 20.3125 C24.6746875 20.33666992 24.6746875 20.33666992 22.8125 20.36132812 C12.43612965 20.36687106 3.20930399 18.95885599 -6 14 C-6.99 14 -7.98 14 -9 14 C-9.625 12.125 -9.625 12.125 -10 10 C-9.34 9.34 -8.68 8.68 -8 8 C-7.01 8.33 -6.02 8.66 -5 9 C-4.67 7.35 -4.34 5.7 -4 4 C-3.67 4.99 -3.34 5.98 -3 7 C-2.01 7 -1.02 7 0 7 C-0.2784375 5.824375 -0.2784375 5.824375 -0.5625 4.625 C-1 2 -1 2 0 0 Z " fill="#EA2A3A" transform="translate(82,128)"/>
<path d="M0 0 C2.13908668 1.61157436 3.96197184 3.28410621 5.7265625 5.30078125 C5.7265625 5.96078125 5.7265625 6.62078125 5.7265625 7.30078125 C6.3865625 7.63078125 7.0465625 7.96078125 7.7265625 8.30078125 C6.9634375 8.89890625 6.2003125 9.49703125 5.4140625 10.11328125 C2.84315016 12.06703658 2.84315016 12.06703658 1.453125 13.8125 C-0.99677499 15.92429162 -3.48401474 16.44211751 -6.5859375 17.30078125 C-11.13314517 18.56829558 -15.06919562 20.16631999 -19.2734375 22.30078125 C-22.6484375 22.98828125 -22.6484375 22.98828125 -25.2734375 23.30078125 C-27.2734375 20.30078125 -27.2734375 20.30078125 -27.16015625 17.88671875 C-24.14388857 9.09037863 -13.17578303 4.28989056 -5.375 0.3203125 C-2.2734375 -0.69921875 -2.2734375 -0.69921875 0 0 Z " fill="#04145D" transform="translate(113.2734375,37.69921875)"/>
<path d="M0 0 C2.44787613 2.75386064 2.93995768 4.41158524 3.3125 8.0625 C2.80671414 12.81688708 2.80671414 12.81688708 1 15 C-3.0161758 17.36079655 -6.10373234 18.10456456 -10.75 17.5625 C-14.76982188 15.62989333 -16.1370273 14.03644085 -18 10 C-17.91599482 5.79974093 -17.04201465 2.93711759 -14 0 C-9.08966397 -2.51226494 -4.91864515 -2.29102456 0 0 Z " fill="#E82A38" transform="translate(69,121)"/>
<path d="M0 0 C11.73978342 5.2018895 24.39922973 16.5549477 30 28 C29.01 28.66 28.02 29.32 27 30 C26.01 29.67 25.02 29.34 24 29 C24.33 27.68 24.66 26.36 25 25 C24.34 24.67 23.68 24.34 23 24 C22.67 25.65 22.34 27.3 22 29 C21.34 28.67 20.68 28.34 20 28 C20.185625 28.5775 20.37125 29.155 20.5625 29.75 C21.04023546 32.20692525 20.75729364 33.64397534 20 36 C19.34 36 18.68 36 18 36 C17.54109375 34.91460937 17.0821875 33.82921875 16.609375 32.7109375 C15.98989761 31.26549027 15.37008825 29.82018528 14.75 28.375 C14.29947266 27.30572266 14.29947266 27.30572266 13.83984375 26.21484375 C12.3722444 22.81126227 10.8730665 19.65865356 8.765625 16.6015625 C7 14 7 14 7 12 C6.34 12 5.68 12 5 12 C3.45703125 10.13671875 3.45703125 10.13671875 1.8125 7.6875 C1.26207031 6.88699219 0.71164063 6.08648437 0.14453125 5.26171875 C-0.23316406 4.51535156 -0.61085937 3.76898438 -1 3 C-0.67 2.01 -0.34 1.02 0 0 Z " fill="#2AA615" transform="translate(152,57)"/>
<path d="M0 0 C3 1.5625 3 1.5625 5 4 C6.14888518 7.94929279 6.43129396 10.02958859 4.75 13.8125 C3 16 3 16 0 18 C-4.73754803 18.30564826 -8.81660627 18.53539014 -13 16 C-13.8125 14.3125 -13.8125 14.3125 -14 12 C-14.12375 10.865625 -14.2475 9.73125 -14.375 8.5625 C-14 5 -14 5 -12.0625 2.0625 C-7.94945012 -0.70751318 -4.82356003 -0.92626334 0 0 Z " fill="#08165F" transform="translate(131,24)"/>
<path d="M0 0 C1.7074998 1.28062485 3.37373596 2.61767557 5 4 C5 4.66 5 5.32 5 6 C5.639375 6.103125 6.27875 6.20625 6.9375 6.3125 C9.43477142 6.87311195 11.71220766 7.54763315 14.125 8.375 C23.84159842 11.65511222 32.93173768 13.53262121 43.1875 14.1875 C44.33025391 14.26935547 45.47300781 14.35121094 46.65039062 14.43554688 C49.43306808 14.63347791 52.21602325 14.82145365 55 15 C51.94033831 18.41116782 49.32313235 18.8015947 44.8125 19.625 C43.54019531 19.86476562 42.26789063 20.10453125 40.95703125 20.3515625 C22.87531944 23.41671513 3.64387086 23.61914741 -13 15 C-13 14.34 -13 13.68 -13 13 C-7 15 -7 15 -4.7734375 15.765625 C-4.00257812 16.02859375 -3.23171875 16.2915625 -2.4375 16.5625 C-1.71433594 16.81128906 -0.99117187 17.06007812 -0.24609375 17.31640625 C4.43459821 18.74096467 8.72146957 19.11999329 13.61328125 19.09765625 C15.4840332 19.09282227 15.4840332 19.09282227 17.39257812 19.08789062 C18.68615234 19.07951172 19.97972656 19.07113281 21.3125 19.0625 C22.62541016 19.05798828 23.93832031 19.05347656 25.29101562 19.04882812 C28.5273901 19.03705949 31.76367178 19.0206176 35 19 C34.34 18.34 33.68 17.68 33 17 C29.40320934 17.32326553 29.40320934 17.32326553 26 18 C25.505 17.01 25.505 17.01 25 16 C23.845 15.835 22.69 15.67 21.5 15.5 C20.345 15.335 19.19 15.17 18 15 C17.67 14.34 17.34 13.68 17 13 C14.66836622 12.32741333 12.3347961 11.66152556 10 11 C7.20525233 9.47559218 4.64951431 7.76634287 2 6 C2 5.34 2 4.68 2 4 C1.01 3.67 0.02 3.34 -1 3 C-0.67 2.01 -0.34 1.02 0 0 Z " fill="#B72332" transform="translate(87,128)"/>
<path d="M0 0 C0 0.66 0 1.32 0 2 C0.66 2 1.32 2 2 2 C2.70125 2.825 3.4025 3.65 4.125 4.5 C7.19379208 7.16851485 7.44446526 7.30162233 11.1875 7.125 C12.445625 7.08375 13.70375 7.0425 15 7 C15.66 7.99 16.32 8.98 17 10 C16.05125 9.979375 15.1025 9.95875 14.125 9.9375 C11.09333717 9.77448174 11.09333717 9.77448174 9 11 C8.34 10.67 7.68 10.34 7 10 C7 10.66 7 11.32 7 12 C6.34 12.66 5.68 13.32 5 14 C5 14.99 5 15.98 5 17 C5 17.66 5 18.32 5 19 C5.66 19 6.32 19 7 19 C6.505 20.485 6.505 20.485 6 22 C5.505 21.01 5.505 21.01 5 20 C-2.98799677 19.453293 -8.812612 20.50038176 -16 24 C-16.96873047 24.46212891 -16.96873047 24.46212891 -17.95703125 24.93359375 C-19.31641198 25.59895809 -20.66069281 26.29510148 -22 27 C-22 26.34 -22 25.68 -22 25 C-17.44097747 20.86694674 -12.6604621 18.71270909 -6.6875 17.4375 C-2.05930208 16.43898124 -2.05930208 16.43898124 1.6875 13.5625 C2.83361525 11.32484641 3.63259303 9.47999704 4 7 C3.195625 6.731875 2.39125 6.46375 1.5625 6.1875 C0.2940625 5.5996875 0.2940625 5.5996875 -1 5 C-1.495 3.515 -1.495 3.515 -2 2 C-12.12851748 4.72967138 -20.76965751 10.38231774 -28 18 C-28.33 18.99 -28.66 19.98 -29 21 C-30.31200404 22.35432675 -31.64631404 23.68733482 -33 25 C-33.66 25.99 -34.32 26.98 -35 28 C-35.66 27.67 -36.32 27.34 -37 27 C-29.47440569 16.32539814 -21.96844705 7.78766144 -10 2 C-9.33484375 1.66871094 -8.6696875 1.33742187 -7.984375 0.99609375 C-3.42281659 -1.14093886 -3.42281659 -1.14093886 0 0 Z " fill="#030D49" transform="translate(115,36)"/>
<path d="M0 0 C0 3 0 3 -1.4609375 4.71875 C-2.09257813 5.3065625 -2.72421875 5.894375 -3.375 6.5 C-5.65041801 8.63496011 -7.24747563 10.37121344 -9 13 C-9.66 13 -10.32 13 -11 13 C-11.2475 13.680625 -11.495 14.36125 -11.75 15.0625 C-12.96087385 17.90805354 -14.42500234 20.49588416 -15.98046875 23.1640625 C-18.09490438 26.97166688 -20 30.57521939 -20 35 C-19.29875 35.0825 -18.5975 35.165 -17.875 35.25 C-14.3096548 36.18009005 -11.90984428 37.76686369 -9 40 C-9 40.66 -9 41.32 -9 42 C-8.34 42 -7.68 42 -7 42 C-6.67 42.66 -6.34 43.32 -6 44 C-5.34 44 -4.68 44 -4 44 C-4.185625 44.78375 -4.37125 45.5675 -4.5625 46.375 C-5.25962266 48.97089775 -5.25962266 48.97089775 -4 51 C-4.6875 53.5625 -4.6875 53.5625 -6 56 C-8.125 56.8125 -8.125 56.8125 -10 57 C-10.33 58.32 -10.66 59.64 -11 61 C-11.99 60.34 -12.98 59.68 -14 59 C-13.67 57.68 -13.34 56.36 -13 55 C-12.34 55 -11.68 55 -11 55 C-10.83126522 53.56274129 -10.66509263 52.12518162 -10.5 50.6875 C-10.4071875 49.88699219 -10.314375 49.08648437 -10.21875 48.26171875 C-9.95186537 45.88103445 -9.95186537 45.88103445 -10 43 C-10.66 42.67 -11.32 42.34 -12 42 C-12.7425 41.34 -13.485 40.68 -14.25 40 C-17.27962699 37.79663491 -19.31510822 37.34278063 -23 37 C-22.42566333 21.78007824 -10.38309839 9.95929846 0 0 Z " fill="#D12438" transform="translate(83,81)"/>
<path d="M0 0 C3.3732986 0.56706313 4.83342165 1.49920124 7 4.125 C7.474375 4.68445312 7.94875 5.24390625 8.4375 5.8203125 C13.43820521 12.79629627 14.81862472 18.12565145 15.6875 26.625 C15.87119141 28.22045654 15.87119141 28.22045654 16.05859375 29.84814453 C16.805023 36.4919734 17.37986662 43.12083203 17.59375 49.8046875 C17.7278125 50.52914062 17.861875 51.25359375 18 52 C21.7367843 54.49118953 23.74451819 54.2065226 28.1875 54.125 C29.45980469 54.10695312 30.73210937 54.08890625 32.04296875 54.0703125 C33.01878906 54.04710937 33.99460938 54.02390625 35 54 C34.505 54.99 34.505 54.99 34 56 C30.83800849 57.05399717 28.38539814 57.23445913 25.0625 57.3125 C24.02222656 57.34988281 22.98195312 57.38726562 21.91015625 57.42578125 C18.22951375 56.88727114 17.30862374 55.86339522 15 53 C14.40991211 50.45727539 14.40991211 50.45727539 14.27734375 47.59765625 C14.1848938 46.02383179 14.1848938 46.02383179 14.09057617 44.41821289 C14.04006104 43.31082764 13.9895459 42.20344238 13.9375 41.0625 C12.71987388 19.83033368 12.71987388 19.83033368 2.1875 1.875 C1.465625 1.25625 0.74375 0.6375 0 0 Z " fill="#030B39" transform="translate(122,57)"/>
<path d="M0 0 C6.75048018 2.14860889 13.59076612 3.48408168 20.55981445 4.72998047 C21.38956787 4.88354004 22.21932129 5.03709961 23.07421875 5.1953125 C24.19123169 5.39278076 24.19123169 5.39278076 25.33081055 5.59423828 C27.1875 6.125 27.1875 6.125 29.1875 8.125 C27.45869018 8.17949838 25.72937288 8.21801688 24 8.25 C23.03707031 8.27320312 22.07414062 8.29640625 21.08203125 8.3203125 C17.97380216 8.11058044 16.04027639 7.34761845 13.1875 6.125 C-0.60151795 1.42465677 -0.60151795 1.42465677 -14.8125 -0.875 C-18.24004276 1.41002851 -18.69691117 2.26334634 -19.8125 6.125 C-20.31257794 9.66713985 -20.31257794 9.66713985 -19.8125 13.125 C-17.95829161 15.56598818 -17.95829161 15.56598818 -15.8125 17.125 C-16.1425 17.785 -16.4725 18.445 -16.8125 19.125 C-21.546875 16.69711538 -21.546875 16.69711538 -22.625 14.375 C-22.686875 13.6325 -22.74875 12.89 -22.8125 12.125 C-22.93625 11.0525 -23.06 9.98 -23.1875 8.875 C-22.7100226 4.10022605 -20.94876032 0.74715981 -17.8125 -2.875 C-12.02700056 -4.80349981 -5.62422492 -1.83131133 0 0 Z " fill="#478E39" transform="translate(118.8125,111.875)"/>
<path d="M0 0 C0.66 0.66 1.32 1.32 2 2 C1.45472656 2.44988281 0.90945312 2.89976563 0.34765625 3.36328125 C-7.36215469 9.93968409 -13.83872943 17.26324054 -19 26 C-20.6875 27.8125 -20.6875 27.8125 -22 29 C-22.66 28.67 -23.32 28.34 -24 28 C-23.0900688 25.33086848 -22.17228234 22.66486389 -21.25 20 C-20.99734375 19.25621094 -20.7446875 18.51242188 -20.484375 17.74609375 C-18.69266156 12.5949176 -16.5269893 7.8342404 -14 3 C-13.34 3.66 -12.68 4.32 -12 5 C-13.65 8.3 -15.3 11.6 -17 15 C-12.47101983 12.56928629 -12.47101983 12.56928629 -10.125 8.25 C-10.08375 7.5075 -10.0425 6.765 -10 6 C-8.68 5.67 -7.36 5.34 -6 5 C-6 4.34 -6 3.68 -6 3 C-5.195625 2.690625 -4.39125 2.38125 -3.5625 2.0625 C-1.10919595 1.23664655 -1.10919595 1.23664655 0 0 Z " fill="#03083A" transform="translate(91,62)"/>
<path d="M0 0 C3.92841032 1.71807626 7.19063301 4.27308689 10.5625 6.875 C11.13935547 7.30941406 11.71621094 7.74382812 12.31054688 8.19140625 C15.36040169 10.5342013 17.88958398 12.77053777 20 16 C17.22008939 14.82388397 15.0934711 13.31519951 12.8125 11.375 C10.48618478 8.89246986 10.48618478 8.89246986 9 9 C9.63205403 11.94958548 10.61948466 14.32708069 12 17 C12.31727051 17.61883057 12.63454102 18.23766113 12.96142578 18.87524414 C13.2861084 19.50551514 13.61079102 20.13578613 13.9453125 20.78515625 C14.67203593 22.21085548 15.39859382 23.6366391 16.125 25.0625 C16.49753906 25.78244141 16.87007812 26.50238281 17.25390625 27.24414062 C17.60582031 27.93830078 17.95773438 28.63246094 18.3203125 29.34765625 C18.64273926 29.97679932 18.96516602 30.60594238 19.29736328 31.25415039 C20 33 20 33 20 36 C19.34 36 18.68 36 18 36 C17.54109375 34.91460937 17.0821875 33.82921875 16.609375 32.7109375 C15.98989761 31.26549027 15.37008825 29.82018528 14.75 28.375 C14.29947266 27.30572266 14.29947266 27.30572266 13.83984375 26.21484375 C12.3722444 22.81126227 10.8730665 19.65865356 8.765625 16.6015625 C7 14 7 14 7 12 C6.34 12 5.68 12 5 12 C3.45703125 10.13671875 3.45703125 10.13671875 1.8125 7.6875 C1.26207031 6.88699219 0.71164063 6.08648437 0.14453125 5.26171875 C-0.23316406 4.51535156 -0.61085937 3.76898438 -1 3 C-0.67 2.01 -0.34 1.02 0 0 Z " fill="#3B8E32" transform="translate(152,57)"/>
<path d="M0 0 C5.55228758 2.31423079 9.62375811 4.73515702 12.01171875 10.46875 C12.13671875 13.65625 12.13671875 13.65625 11.01171875 16.46875 C8.82421875 18.59375 8.82421875 18.59375 6.01171875 20.46875 C5.14546875 21.0875 4.27921875 21.70625 3.38671875 22.34375 C-1.28138455 25.28292615 -6.12343918 27.87185921 -10.98828125 30.46875 C-10.20703125 26.671875 -10.20703125 26.671875 -8.23828125 24.84375 C-5.87815142 23.40144844 -3.55919767 22.48515882 -0.98828125 21.46875 C2.53418486 19.8371315 5.42282591 18.38742283 7.57421875 15.03125 C8.13110149 11.76950822 7.66290821 10.32080452 6.01171875 7.46875 C4.706534 6.43227976 3.37710528 5.42452057 2.01171875 4.46875 C2.01171875 3.80875 2.01171875 3.14875 2.01171875 2.46875 C0.03171875 2.46875 -1.94828125 2.46875 -3.98828125 2.46875 C-3.98828125 1.80875 -3.98828125 1.14875 -3.98828125 0.46875 C-1.98828125 -0.53125 -1.98828125 -0.53125 0 0 Z " fill="#B82A38" transform="translate(113.98828125,62.53125)"/>
<path d="M0 0 C0.33 0.66 0.66 1.32 1 2 C0.030625 2.5775 -0.93875 3.155 -1.9375 3.75 C-4.99831445 5.64036486 -4.99831445 5.64036486 -5.9375 7.875 C-6.01998812 10.67959604 -5.56089701 13.25783684 -5 16 C-1.37 16 2.26 16 6 16 C8.24650496 10.44782356 8.24650496 10.44782356 7 5 C4.56391207 2.61611084 4.56391207 2.61611084 2 1 C4.8125 1.1875 4.8125 1.1875 8 2 C10.33891484 4.72873399 10.94804925 6.49088263 11.3125 10.0625 C10.80671414 14.81688708 10.80671414 14.81688708 9 17 C4.9838242 19.36079655 1.89626766 20.10456456 -2.75 19.5625 C-6.76982188 17.62989333 -8.1370273 16.03644085 -10 12 C-9.91599482 7.79974093 -9.04201465 4.93711759 -6 2 C-2.8125 0.75 -2.8125 0.75 0 0 Z " fill="#B02836" transform="translate(61,119)"/>
<path d="M0 0 C0.99 0.33 1.98 0.66 3 1 C0.70507812 2.85546875 0.70507812 2.85546875 -1.58984375 4.7109375 C-3.13266437 5.9666391 -3.13266437 5.9666391 -4 8 C-4.66 8 -5.32 8 -6 8 C-6 8.66 -6 9.32 -6 10 C-6.7425 10.53625 -7.485 11.0725 -8.25 11.625 C-12.29934275 15.12215965 -14.59345331 18.98854302 -15.31640625 24.34375 C-15.42400306 28.64762224 -15.00764235 32.11019295 -13 36 C-17.55574746 32.81097678 -17.95157787 28.8003829 -18.8984375 23.65625 C-19.01212143 20.68297803 -18.52857303 19.50316657 -17 17 C-16.70480469 16.32710937 -16.40960938 15.65421875 -16.10546875 14.9609375 C-14.80155025 12.6479796 -13.34540162 11.32640686 -11.3125 9.625 C-8.1262227 6.95003113 -8.1262227 6.95003113 -5.0234375 4.1796875 C-4.41757813 3.62539062 -3.81171875 3.07109375 -3.1875 2.5 C-2.64480469 1.9946875 -2.10210937 1.489375 -1.54296875 0.96875 C-1.03378906 0.6490625 -0.52460937 0.329375 0 0 Z " fill="#B8333F" transform="translate(99,93)"/>
<path d="M0 0 C0 0.66 0 1.32 0 2 C0.66 2 1.32 2 2 2 C3.7143618 3.95927063 5.38405168 5.95880212 7 8 C3.31731261 7.50233954 1.34971233 6.93714041 -1 4 C-1.495 3.01 -1.495 3.01 -2 2 C-12.12851748 4.72967138 -20.76965751 10.38231774 -28 18 C-28.33 18.99 -28.66 19.98 -29 21 C-30.31200404 22.35432675 -31.64631404 23.68733482 -33 25 C-33.66 25.99 -34.32 26.98 -35 28 C-35.66 27.67 -36.32 27.34 -37 27 C-29.47440569 16.32539814 -21.96844705 7.78766144 -10 2 C-9.33484375 1.66871094 -8.6696875 1.33742187 -7.984375 0.99609375 C-3.42281659 -1.14093886 -3.42281659 -1.14093886 0 0 Z " fill="#02052F" transform="translate(115,36)"/>
<path d="M0 0 C0.66 1.32 1.32 2.64 2 4 C2.66 4 3.32 4 4 4 C5.23076923 10.4 5.23076923 10.4 4.0625 13.4375 C3.5365625 14.2109375 3.5365625 14.2109375 3 15 C2.67 14.67 2.34 14.34 2 14 C1.608125 14.9075 1.21625 15.815 0.8125 16.75 C-1.64004214 21.14766177 -4.22707358 23.40902453 -9 25 C-10.39439664 25.06665376 -11.79169875 25.08538199 -13.1875 25.0625 C-15.0746875 25.0315625 -15.0746875 25.0315625 -17 25 C-9.28571429 21 -9.28571429 21 -5 21 C-5 20.34 -5 19.68 -5 19 C-4.34 19 -3.68 19 -3 19 C-1.05543072 14.86581409 -0.62971979 11.230003 -0.375 6.6875 C-0.30023438 5.43324219 -0.22546875 4.17898437 -0.1484375 2.88671875 C-0.09945312 1.93410156 -0.05046875 0.98148437 0 0 Z " fill="#4A9741" transform="translate(171,94)"/>
<path d="M0 0 C0.66 0 1.32 0 2 0 C4.37760486 8.29397044 6.67274605 16.3277702 7 25 C7.0515625 26.04671875 7.103125 27.0934375 7.15625 28.171875 C7.39583582 36.51744758 7.39583582 36.51744758 5.484375 38.84765625 C4.74960938 39.41806641 4.74960938 39.41806641 4 40 C4.17015625 39.32582031 4.3403125 38.65164062 4.515625 37.95703125 C5.93569247 29.2877484 4.66107553 19.93233032 1 12 C0.03929566 9.11788698 -0.10581883 7.30149956 -0.0625 4.3125 C-0.05347656 3.50425781 -0.04445312 2.69601563 -0.03515625 1.86328125 C-0.02355469 1.24839844 -0.01195312 0.63351563 0 0 Z " fill="#030936" transform="translate(153,71)"/>
<path d="M0 0 C3.23721281 2.38982475 5.27864962 5.21095623 7.46875 8.5234375 C7.87544922 9.11318359 8.28214844 9.70292969 8.70117188 10.31054688 C11.65625 14.67611607 11.65625 14.67611607 11.65625 16.9609375 C12.31625 17.2909375 12.97625 17.6209375 13.65625 17.9609375 C13.65625 18.9509375 13.65625 19.9409375 13.65625 20.9609375 C14.31625 21.2909375 14.97625 21.6209375 15.65625 21.9609375 C15.65625 23.2809375 15.65625 24.6009375 15.65625 25.9609375 C16.31625 26.2909375 16.97625 26.6209375 17.65625 26.9609375 C16.66625 27.2909375 15.67625 27.6209375 14.65625 27.9609375 C12.65625 24.9609375 12.65625 24.9609375 12.65625 20.9609375 C11.66625 20.6309375 10.67625 20.3009375 9.65625 19.9609375 C9.45 19.0121875 9.24375 18.0634375 9.03125 17.0859375 C7.59549162 11.04063904 2.77672488 6.40428541 -1.34375 1.9609375 C-2.00375 1.6309375 -2.66375 1.3009375 -3.34375 0.9609375 C-3.67375 1.6209375 -4.00375 2.2809375 -4.34375 2.9609375 C-5.00375 2.3009375 -5.66375 1.6409375 -6.34375 0.9609375 C-3.77531708 -0.84647826 -2.94972121 -1.30770974 0 0 Z " fill="#030837" transform="translate(137.34375,42.0390625)"/>
<path d="M0 0 C1.7074998 1.28062485 3.37373596 2.61767557 5 4 C5 4.66 5 5.32 5 6 C5.639375 6.103125 6.27875 6.20625 6.9375 6.3125 C9.43477142 6.87311195 11.71220766 7.54763315 14.125 8.375 C23.86023632 11.78998055 23.86023632 11.78998055 34 13 C34 13.66 34 14.32 34 15 C28.26016704 15.18639995 23.35403648 14.64579907 17.8125 13.1875 C16.78479492 12.9390332 16.78479492 12.9390332 15.73632812 12.68554688 C11.70122489 11.65638195 8.44448689 10.33099379 5 8 C4.01 7.34 3.02 6.68 2 6 C2 5.34 2 4.68 2 4 C1.01 3.67 0.02 3.34 -1 3 C-0.67 2.01 -0.34 1.02 0 0 Z " fill="#AE383C" transform="translate(87,128)"/>
<path d="M0 0 C3.76572058 3.76572058 4.125 9.36475086 4.125 14.5 C4.08375 15.655 4.0425 16.81 4 18 C4.86625 18.12375 4.86625 18.12375 5.75 18.25 C8.80545009 19.26848336 10.08676027 20.40346036 12 23 C12.25 26.75 12.25 26.75 12 30 C11.67 30 11.34 30 11 30 C10.8453125 28.6078125 10.8453125 28.6078125 10.6875 27.1875 C9.9929808 23.96745642 9.52259061 22.97420135 7 21 C6.34 21.33 5.68 21.66 5 22 C5 21.34 5 20.68 5 20 C4.35546875 19.75378906 3.7109375 19.50757812 3.046875 19.25390625 C1 18 1 18 0.390625 16.15234375 C0.34421875 15.42144531 0.2978125 14.69054687 0.25 13.9375 C0.19457031 13.1434375 0.13914063 12.349375 0.08203125 11.53125 C-0.04273492 7.68132236 -0.06114174 3.85192964 0 0 Z " fill="#449336" transform="translate(187,95)"/>
<path d="M0 0 C4.875 1.875 4.875 1.875 6 3 C7.51469448 3.23192865 9.03754562 3.41215238 10.5625 3.5625 C11.38878906 3.64628906 12.21507812 3.73007813 13.06640625 3.81640625 C13.70449219 3.87699219 14.34257812 3.93757812 15 4 C15.33 3.34 15.66 2.68 16 2 C16.66 2 17.32 2 18 2 C18.99 1.67 19.98 1.34 21 1 C20 4 20 4 17 6 C14.90242102 6.22123997 12.79518805 6.35727658 10.6875 6.4375 C5.58492072 6.74433662 2.30494663 7.32395209 -2 10 C-2.66 10 -3.32 10 -4 10 C-4 9.34 -4 8.68 -4 8 C-2.68 7.34 -1.36 6.68 0 6 C0 4.02 0 2.04 0 0 Z " fill="#3BA229" transform="translate(177,125)"/>
<path d="M0 0 C0.33 0.99 0.66 1.98 1 3 C1.99 3.33 2.98 3.66 4 4 C4 5.32 4 6.64 4 8 C2.35 8.33 0.7 8.66 -1 9 C-1.33 9.99 -1.66 10.98 -2 12 C-2.763125 11.62875 -3.52625 11.2575 -4.3125 10.875 C-5.199375 10.58625 -6.08625 10.2975 -7 10 C-7.99 10.66 -8.98 11.32 -10 12 C-9.67 10.35 -9.34 8.7 -9 7 C-5.535 6.505 -5.535 6.505 -2 6 C-2 5.34 -2 4.68 -2 4 C-2.33 3.67 -2.66 3.34 -3 3 C-3 2.34 -3 1.68 -3 1 C-2.01 0.67 -1.02 0.34 0 0 Z " fill="#36A821" transform="translate(184,107)"/>
<path d="M0 0 C3.3 0.33 6.6 0.66 10 1 C10 2.32 10 3.64 10 5 C6.83920695 5.92964501 5.28608781 6.0995088 2.125 5 C-1.62426863 3.80023404 -4.18184159 4.23636832 -8 5 C-8.33 4.34 -8.66 3.68 -9 3 C-11.32156597 2.59270772 -13.6568787 2.25561323 -16 2 C-16 1.67 -16 1.34 -16 1 C-10.72 1.33 -5.44 1.66 0 2 C0 1.34 0 0.68 0 0 Z " fill="#C73436" transform="translate(121,141)"/>
<path d="M0 0 C0 3 0 3 -1.4609375 4.71875 C-2.09257813 5.3065625 -2.72421875 5.894375 -3.375 6.5 C-5.65041801 8.63496011 -7.24747563 10.37121344 -9 13 C-9.66 13 -10.32 13 -11 13 C-11.2475 13.680625 -11.495 14.36125 -11.75 15.0625 C-13.23149574 18.54401499 -15.08706866 21.74526431 -17 25 C-17.75165139 26.31155497 -18.5017152 27.62402137 -19.25 28.9375 C-19.8275 29.948125 -20.405 30.95875 -21 32 C-22 29 -22 29 -21.03125 26.6171875 C-15.27935211 16.31659485 -8.5036176 8.15653117 0 0 Z " fill="#A12B35" transform="translate(83,81)"/>
<path d="M0 0 C0.66 0 1.32 0 2 0 C1.835 1.093125 1.67 2.18625 1.5 3.3125 C0.69492978 7.65507791 0.69492978 7.65507791 2 11.625 C5.13796443 13.78235055 8.23442808 13.69134656 12 14 C12.33 13.34 12.66 12.68 13 12 C13.99 12.33 14.98 12.66 16 13 C13.30926173 15.69073827 11.94637525 16.00425593 8.0625 16.3125 C4.6873721 16.16767175 1.94120692 15.78254965 -1 14 C-2.61986555 10.63566386 -2.19954936 6.65840493 -2 3 C-1.34 2.01 -0.68 1.02 0 0 Z " fill="#050A36" transform="translate(119,26)"/>
<path d="M0 0 C1.15128807 2.30257613 2.28340459 4.60545526 3.375 6.9375 C4.97756241 9.95771378 6.78648096 12.40483975 9 15 C8.01 15 7.02 15 6 15 C4.3125 13 4.3125 13 3 11 C2.4465236 13.07553648 2 14.84365964 2 17 C1.01 17 0.02 17 -1 17 C-2.1875 14.25 -2.1875 14.25 -3 11 C-1.625 8.625 -1.625 8.625 0 7 C-0.66 6.34 -1.32 5.68 -2 5 C-1.34 3.35 -0.68 1.7 0 0 Z " fill="#DD2535" transform="translate(80,118)"/>
<path d="M0 0 C2 2 2 2 2.4375 4.3125 C3.08766617 7.4188495 4.34259623 9.29601967 6 12 C7.08378468 14.03044818 8.14587167 16.07260641 9.1875 18.125 C9.71730469 19.15882812 10.24710938 20.19265625 10.79296875 21.2578125 C12 24 12 24 12 27 C11.34 27 10.68 27 10 27 C9.55269531 25.9378125 9.10539063 24.875625 8.64453125 23.78125 C5.53156058 16.4782398 2.38533282 9.64444367 -2 3 C-2 2.34 -2 1.68 -2 1 C-1.34 0.67 -0.68 0.34 0 0 Z " fill="#489137" transform="translate(160,66)"/>
<path d="M0 0 C3.3 0.33 6.6 0.66 10 1 C6.60048162 4.39951838 4.08296765 4.92652075 -0.4375 5.75 C-1.44006836 5.95689453 -1.44006836 5.95689453 -2.46289062 6.16796875 C-5.90640135 6.83005109 -8.67210907 7.25966204 -12 6 C-4.375 4 -4.375 4 -1 4 C-0.67 2.68 -0.34 1.36 0 0 Z " fill="#A03134" transform="translate(132,142)"/>
<path d="M0 0 C6.27 0 12.54 0 19 0 C18.67 0.66 18.34 1.32 18 2 C14.94080612 3.01973129 12.87581975 3.11533602 9.67578125 3.09765625 C8.64775391 3.09443359 7.61972656 3.09121094 6.56054688 3.08789062 C5.48869141 3.07951172 4.41683594 3.07113281 3.3125 3.0625 C2.22904297 3.05798828 1.14558594 3.05347656 0.02929688 3.04882812 C-2.64719085 3.03703743 -5.32356777 3.02058063 -8 3 C-8 2.34 -8 1.68 -8 1 C-5.36 1 -2.72 1 0 1 C0 0.67 0 0.34 0 0 Z " fill="#309921" transform="translate(146,118)"/>
<path d="M0 0 C0.66 0.99 1.32 1.98 2 3 C2.99 2.01 3.98 1.02 5 0 C5.66 0.33 6.32 0.66 7 1 C6.06692579 2.44037669 5.12834923 3.87718985 4.1875 5.3125 C3.66542969 6.11300781 3.14335938 6.91351563 2.60546875 7.73828125 C1.19610151 9.7237402 -0.22096657 11.3491852 -2 13 C-2.66 12.67 -3.32 12.34 -4 12 C-2.68 8.04 -1.36 4.08 0 0 Z " fill="#03062D" transform="translate(71,78)"/>
<path d="M0 0 C0 0.33 0 0.66 0 1 C-1.16015625 1.14695313 -1.16015625 1.14695313 -2.34375 1.296875 C-8.97766154 2.24926824 -14.22138939 3.63789928 -20 7 C-21.32956703 7.67414666 -22.66200501 8.3427393 -24 9 C-24 8.34 -24 7.68 -24 7 C-18.02861034 1.8219109 -7.67322377 -4.85970839 0 0 Z " fill="#040732" transform="translate(117,54)"/>
<path d="M0 0 C7.85546636 -0.31918373 15.26940505 0.64290496 23 2 C18.08271894 5.27818737 12.67938358 3.74316064 7 3 C4.56547881 2.47521667 2.35471963 1.82141382 0 1 C0 0.67 0 0.34 0 0 Z " fill="#539639" transform="translate(115,135)"/>
<path d="M0 0 C1.67542976 0.28604898 3.34385343 0.61781233 5 1 C5.25 3.3125 5.25 3.3125 5 6 C3 7.8125 3 7.8125 1 9 C0.34 8.67 -0.32 8.34 -1 8 C-1.04241723 5.66705225 -1.04092937 3.33297433 -1 1 C-0.67 0.67 -0.34 0.34 0 0 Z " fill="#2FA218" transform="translate(177,118)"/>
<path d="M0 0 C0.99 0 1.98 0 3 0 C3 0.99 3 1.98 3 3 C3.721875 3.103125 4.44375 3.20625 5.1875 3.3125 C8.32712612 4.07996416 10.4397692 5.02496481 13 7 C13 8.32 13 9.64 13 11 C11 10 11 10 8.75 8 C5.72037301 5.79663491 3.68489178 5.34278063 0 5 C0 3.35 0 1.7 0 0 Z " fill="#B52536" transform="translate(60,113)"/>
<path d="M0 0 C0.66 0.66 1.32 1.32 2 2 C0.35 5.3 -1.3 8.6 -3 12 C-1.35 11.67 0.3 11.34 2 11 C2 11.66 2 12.32 2 13 C0.35666496 14.03789581 -1.31243867 15.03567924 -3 16 C-3.66 16.66 -4.32 17.32 -5 18 C-5.67090715 10.75420281 -3.58125682 6.24161903 0 0 Z " fill="#080F40" transform="translate(77,65)"/>
<path d="M0 0 C4.50172909 -0.35307679 7.92625304 -0.55924321 12 1.5625 C14.60064337 4.73203411 14.92612176 6.93669692 15 11 C14.01 12.485 14.01 12.485 13 14 C12 12 12 12 12.25 8.5625 C12.39378218 4.9367009 12.39378218 4.9367009 9.9375 3 C6.26417115 1.74950507 3.75291666 2.19054739 0 3 C0 2.01 0 1.02 0 0 Z " fill="#02052B" transform="translate(122,24)"/>
<path d="M0 0 C4.77135213 3.57851409 7.29076328 6.68572797 10 12 C9.01 12.66 8.02 13.32 7 14 C6.01 13.67 5.02 13.34 4 13 C4.2475 12.46375 4.495 11.9275 4.75 11.375 C5.13453631 7.72190506 3.08903992 5.88779048 1 3 C0.67 2.01 0.34 1.02 0 0 Z " fill="#389223" transform="translate(172,73)"/>
<path d="M0 0 C0.66 0 1.32 0 2 0 C3 3 3 3 2.0625 5.1875 C1.5365625 6.0846875 1.5365625 6.0846875 1 7 C0.34 7 -0.32 7 -1 7 C-1 9.31 -1 11.62 -1 14 C-1.66 13.67 -2.32 13.34 -3 13 C-3.31563182 7.73946963 -2.66590937 4.55426184 0 0 Z " fill="#2FA219" transform="translate(101,112)"/>
<path d="M0 0 C2.88437779 1.29299694 4.87219421 2.65941363 7 5 C6.01 5 5.02 5 4 5 C4.350625 5.598125 4.70125 6.19625 5.0625 6.8125 C6 9 6 9 5 12 C3.96674014 10.57140593 2.94872366 9.13177617 1.9375 7.6875 C1.36902344 6.88699219 0.80054688 6.08648437 0.21484375 5.26171875 C-0.18605469 4.51535156 -0.58695313 3.76898438 -1 3 C-0.67 2.01 -0.34 1.02 0 0 Z " fill="#336A35" transform="translate(152,57)"/>
<path d="M0 0 C1.32 0 2.64 0 4 0 C4.33 0.99 4.66 1.98 5 3 C3.68 3.33 2.36 3.66 1 4 C1 4.66 1 5.32 1 6 C0.34 6 -0.32 6 -1 6 C-1 6.66 -1 7.32 -1 8 C-1.66 8 -2.32 8 -3 8 C-5 5 -5 5 -4.625 2.8125 C-4.41875 2.214375 -4.2125 1.61625 -4 1 C-3.67 1.99 -3.34 2.98 -3 4 C-2.34 4.33 -1.68 4.66 -1 5 C-0.67 3.35 -0.34 1.7 0 0 Z " fill="#21A908" transform="translate(180,104)"/>
<path d="M0 0 C5.41798672 0.69165788 10.6822785 1.75799248 16 3 C16 3.33 16 3.66 16 4 C11.39393881 4.82909101 7.53332803 5.33939237 3 4 C1.125 1.9375 1.125 1.9375 0 0 Z " fill="#2CA41B" transform="translate(120,115)"/>
<path d="M0 0 C0.66 1.32 1.32 2.64 2 4 C2.66 4 3.32 4 4 4 C5.23076923 10.4 5.23076923 10.4 4.0625 13.4375 C3.711875 13.953125 3.36125 14.46875 3 15 C2.67 12.69 2.34 10.38 2 8 C1.34 8 0.68 8 0 8 C0 5.36 0 2.72 0 0 Z " fill="#3DA029" transform="translate(171,94)"/>
<path d="M0 0 C0.66 0 1.32 0 2 0 C3.97387813 4.76052962 4.0070238 7.96488101 3 13 C2.01 12.34 1.02 11.68 0 11 C-0.29296875 8.3984375 -0.29296875 8.3984375 -0.1875 5.375 C-0.16042969 4.37210937 -0.13335937 3.36921875 -0.10546875 2.3359375 C-0.07066406 1.56507812 -0.03585938 0.79421875 0 0 Z " fill="#070F42" transform="translate(153,71)"/>
<path d="M0 0 C0.33 0.66 0.66 1.32 1 2 C1.66 2.33 2.32 2.66 3 3 C3 3.99 3 4.98 3 6 C3.66 6.33 4.32 6.66 5 7 C5 8.32 5 9.64 5 11 C5.66 11.33 6.32 11.66 7 12 C6.01 12.33 5.02 12.66 4 13 C2 10 2 10 2 6 C1.01 5.67 0.02 5.34 -1 5 C-0.67 3.35 -0.34 1.7 0 0 Z " fill="#0A103C" transform="translate(148,57)"/>
<path d="M0 0 C0 0.66 0 1.32 0 2 C-2.64738916 3.4606285 -3.89448334 4 -7 4 C-7.33 5.65 -7.66 7.3 -8 9 C-8.99 9 -9.98 9 -11 9 C-9.25 3.25 -9.25 3.25 -7 1 C-4 0 -4 0 0 0 Z " fill="#091355" transform="translate(129,25)"/>
<path d="M0 0 C-1.65 0.33 -3.3 0.66 -5 1 C-5.33 1.99 -5.66 2.98 -6 4 C-11.94 4.495 -11.94 4.495 -18 5 C-18 4.01 -18 3.02 -18 2 C-14.7 2.33 -11.4 2.66 -8 3 C-8 2.34 -8 1.68 -8 1 C-3.375 -1.125 -3.375 -1.125 0 0 Z " fill="#319D1E" transform="translate(178,132)"/>
<path d="M0 0 C2.34545328 2.34545328 2.95508888 3.95985838 3.09765625 7.26171875 C3.08605469 8.06222656 3.07445312 8.86273438 3.0625 9.6875 C3.05347656 10.49574219 3.04445312 11.30398437 3.03515625 12.13671875 C3.02355469 12.75160156 3.01195312 13.36648437 3 14 C2.01 13.67 1.02 13.34 0 13 C0 8.71 0 4.42 0 0 Z " fill="#349C28" transform="translate(187,95)"/>
<path d="M0 0 C0.33 0.66 0.66 1.32 1 2 C3.02463255 2.65213292 3.02463255 2.65213292 5 3 C4.31292969 3.06058594 3.62585938 3.12117187 2.91796875 3.18359375 C1.56638672 3.30927734 1.56638672 3.30927734 0.1875 3.4375 C-0.70582031 3.51871094 -1.59914063 3.59992188 -2.51953125 3.68359375 C-5.12743559 3.93489767 -5.12743559 3.93489767 -8 5 C-8.33 4.34 -8.66 3.68 -9 3 C-11.32156597 2.59270772 -13.6568787 2.25561323 -16 2 C-16 1.67 -16 1.34 -16 1 C-10.72 1.33 -5.44 1.66 0 2 C0 1.34 0 0.68 0 0 Z " fill="#D22731" transform="translate(121,141)"/>
<path d="M0 0 C0.33 0.66 0.66 1.32 1 2 C-4.625 5.875 -4.625 5.875 -8 7 C-8.33 7.99 -8.66 8.98 -9 10 C-9.33 9.34 -9.66 8.68 -10 8 C-7.89484661 4.27549784 -6.75732776 2.3204079 -2.75 0.625 C-1.8425 0.41875 -0.935 0.2125 0 0 Z " fill="#A6253D" transform="translate(61,119)"/>
<path d="M0 0 C1.95979427 0.28168297 3.91782378 0.57566717 5.875 0.875 C7.51082031 1.11863281 7.51082031 1.11863281 9.1796875 1.3671875 C12 2 12 2 14 4 C12.23050905 4.10815225 10.45912513 4.18566083 8.6875 4.25 C7.70136719 4.29640625 6.71523437 4.3428125 5.69921875 4.390625 C3 4 3 4 1.14453125 1.984375 C0.57798828 1.00210938 0.57798828 1.00210938 0 0 Z " fill="#459343" transform="translate(134,116)"/>
<path d="M0 0 C2 1 2 1 3.125 3.0625 C4.2583306 6.86725273 4.13434296 10.0368828 4 14 C3.01 14.33 2.02 14.66 1 15 C0.67 10.05 0.34 5.1 0 0 Z " fill="#31A81F" transform="translate(184,89)"/>
<path d="M0 0 C3.79598549 1.49128001 5.71720399 3.65733441 8 7 C8 7.99 8 8.98 8 10 C7.01 10 6.02 10 5 10 C3.33333333 6.66666667 1.66666667 3.33333333 0 0 Z " fill="#32A31F" transform="translate(161,70)"/>
<path d="M0 0 C-1 3 -1 3 -3.875 4.5625 C-4.90625 5.036875 -5.9375 5.51125 -7 6 C-7.99 6.66 -8.98 7.32 -10 8 C-10.99 7.67 -11.98 7.34 -13 7 C-3.48854962 0 -3.48854962 0 0 0 Z " fill="#A62331" transform="translate(109,64)"/>
<path d="M0 0 C1.7074998 1.28062485 3.37373596 2.61767557 5 4 C5 4.66 5 5.32 5 6 C6.65 6.33 8.3 6.66 10 7 C10 7.33 10 7.66 10 8 C7.69 7.67 5.38 7.34 3 7 C2.67 6.01 2.34 5.02 2 4 C1.01 3.67 0.02 3.34 -1 3 C-0.67 2.01 -0.34 1.02 0 0 Z " fill="#A7454A" transform="translate(87,128)"/>
<path d="M0 0 C2.53910197 0.38520564 3.72751123 0.70097943 5.484375 2.62890625 C5.90203125 3.26699219 6.3196875 3.90507813 6.75 4.5625 C7.17796875 5.20316406 7.6059375 5.84382813 8.046875 6.50390625 C8.36140625 6.99761719 8.6759375 7.49132812 9 8 C8.01 8.495 8.01 8.495 7 9 C5.33333333 7.33333333 3.66666667 5.66666667 2 4 C1.01 3.34 0.02 2.68 -1 2 C-0.67 1.34 -0.34 0.68 0 0 Z " fill="#33A91B" transform="translate(168,72)"/>
<path d="M0 0 C2.4375 0.375 2.4375 0.375 5 1 C5.33 1.66 5.66 2.32 6 3 C9.02934491 3.65772428 9.02934491 3.65772428 12 4 C11.67 4.66 11.34 5.32 11 6 C8.36 5.67 5.72 5.34 3 5 C3 4.34 3 3.68 3 3 C2.01 2.67 1.02 2.34 0 2 C0 1.34 0 0.68 0 0 Z " fill="#309C18" transform="translate(100,126)"/>
<path d="M0 0 C0.66 0.33 1.32 0.66 2 1 C-1.02272532 4.25524265 -4.25718301 6.61820737 -8 9 C-8.66 8.67 -9.32 8.34 -10 8 C-6.7 5.36 -3.4 2.72 0 0 Z " fill="#A5283B" transform="translate(94,72)"/>
<path d="M0 0 C0.66 0 1.32 0 2 0 C1 3 1 3 -2 5 C-4.91796875 5.1953125 -4.91796875 5.1953125 -8.1875 5.125 C-9.27417969 5.10695312 -10.36085937 5.08890625 -11.48046875 5.0703125 C-12.72763672 5.03550781 -12.72763672 5.03550781 -14 5 C-14 4.67 -14 4.34 -14 4 C-13.24074219 3.96261719 -12.48148438 3.92523438 -11.69921875 3.88671875 C-10.70535156 3.82097656 -9.71148437 3.75523437 -8.6875 3.6875 C-7.70136719 3.62949219 -6.71523437 3.57148438 -5.69921875 3.51171875 C-2.70145133 2.94340105 -1.9473895 2.23500395 0 0 Z " fill="#4B8F31" transform="translate(196,126)"/>
<path d="M0 0 C0.99 0.33 1.98 0.66 3 1 C5.14255793 0.61067144 5.14255793 0.61067144 7 0 C7 0.66 7 1.32 7 2 C8.65 2.33 10.3 2.66 12 3 C12 3.33 12 3.66 12 4 C10.5629191 4.05422947 9.12524538 4.09289723 7.6875 4.125 C6.88699219 4.14820313 6.08648437 4.17140625 5.26171875 4.1953125 C3 4 3 4 0 2 C0 1.34 0 0.68 0 0 Z " fill="#2DAF12" transform="translate(114,129)"/>
<path d="M0 0 C2.1640625 0.77734375 2.1640625 0.77734375 4.625 1.9375 C5.44226563 2.31777344 6.25953125 2.69804688 7.1015625 3.08984375 C7.72804688 3.39019531 8.35453125 3.69054687 9 4 C7.68 4.33 6.36 4.66 5 5 C4.67 4.34 4.34 3.68 4 3 C2.02 3 0.04 3 -2 3 C-2 2.34 -2 1.68 -2 1 C-1.34 0.67 -0.68 0.34 0 0 Z " fill="#9B2734" transform="translate(112,62)"/>
<path d="M0 0 C0.66 0.66 1.32 1.32 2 2 C0.35 3.32 -1.3 4.64 -3 6 C-3.66 5.67 -4.32 5.34 -5 5 C-5.33 5.99 -5.66 6.98 -6 8 C-6.66 7.67 -7.32 7.34 -8 7 C-5.42215154 4.35247996 -3.08351902 2.05567935 0 0 Z " fill="#D52A38" transform="translate(90,77)"/>
<path d="M0 0 C1.32 1.65 2.64 3.3 4 5 C2.35 5.66 0.7 6.32 -1 7 C-1.66 5.02 -2.32 3.04 -3 1 C-2.01 0.67 -1.02 0.34 0 0 Z " fill="#20A70B" transform="translate(170,74)"/>
<path d="M0 0 C1.32 0.99 2.64 1.98 4 3 C3.67 5.31 3.34 7.62 3 10 C0.70366176 6.55549263 0.45983515 4.06187717 0 0 Z " fill="#0A1A64" transform="translate(146,61)"/>
<path d="M0 0 C2.25 0.25 2.25 0.25 4 1 C3.01 1.495 3.01 1.495 2 2 C1.67 2.99 1.34 3.98 1 5 C-0.65 5.33 -2.3 5.66 -4 6 C-4 4 -4 4 -2.25 1.8125 C-1.5075 1.214375 -0.765 0.61625 0 0 Z " fill="#060F54" transform="translate(82,60)"/>
<path d="M0 0 C0.99 0.33 1.98 0.66 3 1 C3.33 1.99 3.66 2.98 4 4 C3.01 4.33 2.02 4.66 1 5 C0.67 5.99 0.34 6.98 0 8 C-1.125 6.25 -1.125 6.25 -2 4 C-1.125 1.75 -1.125 1.75 0 0 Z " fill="#0D1B65" transform="translate(91,49)"/>
<path d="M0 0 C2.31 0.66 4.62 1.32 7 2 C7 2.99 7 3.98 7 5 C4.03 4.505 4.03 4.505 1 4 C0.67 2.68 0.34 1.36 0 0 Z " fill="#E32E40" transform="translate(72,138)"/>
<path d="M0 0 C2.97 0 5.94 0 9 0 C9.33 0.99 9.66 1.98 10 3 C8.906875 2.814375 7.81375 2.62875 6.6875 2.4375 C3.06375867 1.7421932 3.06375867 1.7421932 0 3 C0 2.01 0 1.02 0 0 Z " fill="#06093C" transform="translate(122,24)"/>
<path d="M0 0 C2.4375 0.6875 2.4375 0.6875 5 2 C5.8125 4.625 5.8125 4.625 6 7 C5.01 6.67 4.02 6.34 3 6 C2.67 5.01 2.34 4.02 2 3 C1.34 2.67 0.68 2.34 0 2 C0 1.34 0 0.68 0 0 Z " fill="#E32C42" transform="translate(64,122)"/>
<path d="M0 0 C0.99 0 1.98 0 3 0 C2.67 1.65 2.34 3.3 2 5 C0.68 5.33 -0.64 5.66 -2 6 C-1.34 4.02 -0.68 2.04 0 0 Z " fill="#120B24" transform="translate(69,85)"/>
<path d="M0 0 C0.33 0.66 0.66 1.32 1 2 C1.99 2.33 2.98 2.66 4 3 C0.5980513 5.09350689 -2.05272412 5.17942163 -6 5 C-4 3 -4 3 -1 2 C-0.67 1.34 -0.34 0.68 0 0 Z " fill="#D92738" transform="translate(109,64)"/>
<path d="M0 0 C0.98120464 3.05263664 0.98120464 4.94736336 0 8 C-0.99 7.34 -1.98 6.68 -3 6 C-2.67 4.68 -2.34 3.36 -2 2 C-1.34 2 -0.68 2 0 2 C0 1.34 0 0.68 0 0 Z " fill="#A82E3B" transform="translate(72,134)"/>
<path d="M0 0 C1.98 0.66 3.96 1.32 6 2 C5.67 3.32 5.34 4.64 5 6 C3.2925002 4.71937515 1.62626404 3.38232443 0 2 C0 1.34 0 0.68 0 0 Z " fill="#BF293F" transform="translate(117,66)"/>
<path d="" fill="#805555" transform="translate(0,0)"/>
<path d="" fill="#2A2A2A" transform="translate(0,0)"/>
<path d="" fill="#000000" transform="translate(0,0)"/>
<path d="" fill="#000000" transform="translate(0,0)"/>
<path d="" fill="#005555" transform="translate(0,0)"/>
<path d="" fill="#000015" transform="translate(0,0)"/>
<path d="" fill="#000015" transform="translate(0,0)"/>
</svg>
